<svg width="22" height="22" viewBox="0 0 22 22" fill="none" xmlns="http://www.w3.org/2000/svg">
<path d="M16 1H6C3.23858 1 1 3.23858 1 6V16C1 18.7614 3.23858 21 6 21H16C18.7614 21 21 18.7614 21 16V6C21 3.23858 18.7614 1 16 1Z" stroke="black" stroke-width="2" stroke-linecap="round" stroke-linejoin="round"/>
<path d="M14.9997 10.3695C15.1231 11.2017 14.981 12.0517 14.5935 12.7984C14.206 13.5452 13.5929 14.1508 12.8413 14.5291C12.0898 14.9073 11.2382 15.039 10.4075 14.9053C9.57683 14.7716 8.80947 14.3795 8.21455 13.7846C7.61962 13.1897 7.22744 12.4223 7.09377 11.5917C6.96011 10.761 7.09177 9.90939 7.47003 9.15789C7.8483 8.40639 8.45389 7.79329 9.20069 7.4058C9.94749 7.01831 10.7975 6.87616 11.6297 6.99957C12.4786 7.12545 13.2646 7.52102 13.8714 8.12785C14.4783 8.73467 14.8738 9.52058 14.9997 10.3695Z" stroke="black" stroke-width="2" stroke-linecap="round" stroke-linejoin="round"/>
<path d="M16.5 5.5H16.51" stroke="black" stroke-width="2" stroke-linecap="round" stroke-linejoin="round"/>
</svg>
