<svg width="29" height="41" viewBox="0 0 29 41" fill="none" xmlns="http://www.w3.org/2000/svg">
<g clip-path="url(#clip0_549_373)">
<path d="M7.11626 40.3256C11.0444 40.3256 14.2325 37.3146 14.2325 33.6047V26.8837H7.11626C3.18808 26.8837 -1.52588e-05 29.8947 -1.52588e-05 33.6047C-1.52588e-05 37.3146 3.18808 40.3256 7.11626 40.3256Z" fill="#0ACF83"/>
<path d="M-1.52588e-05 20.1628C-1.52588e-05 16.4529 3.18808 13.4419 7.11626 13.4419H14.2325V26.8838H7.11626C3.18808 26.8838 -1.52588e-05 23.8728 -1.52588e-05 20.1628Z" fill="#A259FF"/>
<path d="M-1.52588e-05 6.72093C-1.52588e-05 3.01098 3.18808 0 7.11626 0H14.2325V13.4419H7.11626C3.18808 13.4419 -1.52588e-05 10.4309 -1.52588e-05 6.72093Z" fill="#F24E1E"/>
<path d="M14.2325 0H21.3488C25.277 0 28.4651 3.01098 28.4651 6.72093C28.4651 10.4309 25.277 13.4419 21.3488 13.4419H14.2325V0Z" fill="#FF7262"/>
<path d="M28.4651 20.1628C28.4651 23.8728 25.277 26.8838 21.3488 26.8838C17.4206 26.8838 14.2325 23.8728 14.2325 20.1628C14.2325 16.4529 17.4206 13.4419 21.3488 13.4419C25.277 13.4419 28.4651 16.4529 28.4651 20.1628Z" fill="#1ABCFE"/>
</g>
<defs>
<clipPath id="clip0_549_373">
<rect width="28.4651" height="40.3256" fill="white"/>
</clipPath>
</defs>
</svg>
