<svg width="24" height="24" viewBox="0 0 24 24" fill="none" xmlns="http://www.w3.org/2000/svg">
<g clip-path="url(#clip0_627_735)">
<path d="M21.8243 0H2.17566C0.974063 0 0 0.974063 0 2.17566V21.8243C0 23.0259 0.974063 24 2.17566 24H21.8243C23.0259 24 24 23.0259 24 21.8243V2.17566C24 0.974063 23.0259 0 21.8243 0Z" fill="#DC395F"/>
<path d="M8.02081 7.55108C8.81862 7.55108 9.48697 6.92577 9.48697 6.1062C9.48697 5.28721 8.81862 4.66199 8.02081 4.66199C7.223 4.66199 6.55484 5.28721 6.55484 6.1062C6.55484 6.92567 7.223 7.55108 8.02081 7.55108Z" fill="white"/>
<path d="M4.98091 15.2873C4.89476 15.6539 4.85154 16.0497 4.85154 16.3725C4.85154 17.6448 5.54145 18.4894 7.0076 18.4894C8.22354 18.4894 9.20932 17.7674 9.9191 16.6014L9.48569 18.3407H11.9002L13.2802 12.8058C13.6252 11.4044 14.2936 10.677 15.307 10.677C16.1047 10.677 16.6006 11.1732 16.6006 11.9922C16.6006 12.2294 16.579 12.4879 16.4928 12.7683L15.7812 15.3124C15.6734 15.679 15.6304 16.0457 15.6304 16.3904C15.6304 17.5982 16.3417 18.4816 17.8294 18.4816C19.1015 18.4816 20.1148 17.6627 20.6754 15.7006L19.7268 15.3344C19.2525 16.6489 18.8428 16.8866 18.5193 16.8866C18.1959 16.8866 18.0234 16.6711 18.0234 16.2402C18.0234 16.0461 18.0667 15.8308 18.1312 15.5714L18.8213 13.0929C18.9937 12.5109 19.0585 11.9948 19.0585 11.5206C19.0585 9.66642 17.9373 8.69873 16.579 8.69873C15.307 8.69873 14.0133 9.84614 13.3666 11.0537L13.8408 8.88623H10.1541L9.63663 10.7954H11.3615L10.2994 15.0479C9.46526 16.902 7.9331 16.9321 7.74082 16.8891C7.42507 16.8179 7.22313 16.6979 7.22313 16.2877C7.22313 16.051 7.26626 15.7109 7.37407 15.301L8.99126 8.88623H4.89476L4.37726 10.7954H6.08041L4.98101 15.2873" fill="white"/>
</g>
<defs>
<clipPath id="clip0_627_735">
<rect width="24" height="24" fill="white"/>
</clipPath>
</defs>
</svg>
