<svg width="25" height="24" viewBox="0 0 25 24" fill="none" xmlns="http://www.w3.org/2000/svg">
<g clip-path="url(#clip0_627_755)">
<path d="M23.932 10.9309L13.4534 0.452846C12.8503 -0.150623 11.8715 -0.150623 11.2677 0.452846L9.09177 2.62878L11.852 5.38906C12.4935 5.17231 13.229 5.31772 13.7404 5.82903C14.2541 6.34363 14.3985 7.08547 14.1765 7.72897L16.8366 10.3892C17.4802 10.1675 18.2228 10.3109 18.7369 10.8258C19.4553 11.5439 19.4553 12.7078 18.7369 13.4264C18.0183 14.1451 16.8544 14.1451 16.1354 13.4264C15.595 12.8855 15.4615 12.0919 15.7351 11.4262L13.2543 8.94538L13.254 15.4738C13.4338 15.5628 13.5981 15.6802 13.7404 15.8217C14.4588 16.5398 14.4588 17.7038 13.7404 18.4229C13.0218 19.1413 11.8573 19.1413 11.1397 18.4229C10.4213 17.7038 10.4213 16.5399 11.1397 15.8218C11.3119 15.6495 11.5165 15.5131 11.7417 15.4204V8.8311C11.5162 8.73903 11.3115 8.60254 11.1397 8.42975C10.5954 7.88619 10.4646 7.08753 10.7435 6.41919L8.02246 3.69791L0.837456 10.8824C0.233706 11.4865 0.233706 12.4653 0.837456 13.0689L11.3163 23.5471C11.9195 24.1507 12.8981 24.1507 13.5021 23.5471L23.9319 13.1175C24.5355 12.5138 24.5355 11.5344 23.9319 10.9309" fill="#DE4C36"/>
</g>
<defs>
<clipPath id="clip0_627_755">
<rect width="24" height="24" fill="white" transform="translate(0.384644)"/>
</clipPath>
</defs>
</svg>
