<svg width="48" height="48" viewBox="0 0 48 48" fill="none" xmlns="http://www.w3.org/2000/svg">
<circle cx="24" cy="24" r="24" fill="white"/>
<path d="M10.839 21.565V28H9.62025V24.646L9.6885 22.7642H9.669L7.88475 28H6.783L5.0085 22.7642H4.989L5.05725 24.646V28H3.8385V21.565H5.7885L6.94875 25.075L7.35825 26.5277H7.37775L7.797 25.0847L8.9475 21.565H10.839ZM12.648 28V21.565H17.4742V22.6472H13.9935V24.2462H16.7332V25.2797H13.9935V26.9177H17.6107V28H12.648Z" fill="#F3508C"/>
<path d="M21.4396 21.565C22.4471 21.565 23.2271 21.8445 23.7796 22.4035C24.3321 22.956 24.6083 23.749 24.6083 24.7825C24.6083 25.8095 24.3321 26.6025 23.7796 27.1615C23.2271 27.7205 22.4471 28 21.4396 28H18.9533V21.565H21.4396ZM21.3713 26.9275C21.9823 26.9275 22.4406 26.7455 22.7461 26.3815C23.0581 26.011 23.2141 25.478 23.2141 24.7825C23.2141 24.087 23.0581 23.5572 22.7461 23.1932C22.4406 22.8227 21.9823 22.6375 21.3713 22.6375H20.2988V26.9275H21.3713ZM27.4421 21.565V28H26.0966V21.565H27.4421ZM34.759 26.2255C34.6355 26.6415 34.4405 26.9892 34.174 27.2687C33.9075 27.5482 33.5923 27.7562 33.2283 27.8927C32.8643 28.0293 32.4645 28.0975 32.029 28.0975C31.392 28.0975 30.8395 27.9643 30.3715 27.6977C29.91 27.4312 29.5525 27.051 29.299 26.557C29.052 26.063 28.9285 25.4715 28.9285 24.7825C28.9285 24.0935 29.052 23.502 29.299 23.008C29.5525 22.514 29.91 22.1337 30.3715 21.8672C30.8395 21.6007 31.3855 21.4675 32.0095 21.4675C32.4515 21.4675 32.8513 21.5292 33.2088 21.6527C33.5663 21.7697 33.8685 21.9517 34.1155 22.1987C34.369 22.4457 34.5543 22.7577 34.6713 23.1347L33.4525 23.6515C33.342 23.2615 33.173 22.9852 32.9455 22.8227C32.718 22.6537 32.4255 22.5692 32.068 22.5692C31.717 22.5692 31.4083 22.6537 31.1418 22.8227C30.8818 22.9917 30.6803 23.242 30.5373 23.5735C30.3943 23.8985 30.3228 24.3015 30.3228 24.7825C30.3228 25.257 30.3878 25.66 30.5178 25.9915C30.6543 26.323 30.8525 26.5732 31.1125 26.7422C31.3725 26.9112 31.691 26.9957 32.068 26.9957C32.419 26.9957 32.7213 26.9015 32.9748 26.713C33.2348 26.5245 33.4168 26.2385 33.5208 25.855L34.759 26.2255ZM41.628 28H40.2337L39.6975 26.4302H37.2307L36.6945 28H35.3197L37.6695 21.565H39.2782L41.628 28ZM37.533 25.4357H39.3952L38.4592 22.6278L37.533 25.4357ZM43.4255 26.5082C43.6855 26.5082 43.8903 26.5797 44.0398 26.7227C44.1958 26.8657 44.2738 27.0575 44.2738 27.298C44.2738 27.545 44.1958 27.74 44.0398 27.883C43.8903 28.0195 43.6855 28.0878 43.4255 28.0878C43.1655 28.0878 42.9575 28.0195 42.8015 27.883C42.652 27.74 42.5773 27.545 42.5773 27.298C42.5773 27.0575 42.652 26.8657 42.8015 26.7227C42.9575 26.5797 43.1655 26.5082 43.4255 26.5082Z" fill="#313038"/>
</svg>
