<svg width="24" height="24" viewBox="0 0 24 24" fill="none" xmlns="http://www.w3.org/2000/svg">
<path d="M12 24C5.38725 24 0 18.6128 0 12C0 5.38725 5.38725 0 12 0C18.6128 0 24 5.38725 24 12C24 18.6128 18.6128 24 12 24ZM22.1213 13.641C21.7703 13.5307 18.9495 12.6877 15.7343 13.203C17.0745 16.887 17.6213 19.887 17.727 20.5118C18.8897 19.7272 19.8795 18.7128 20.6352 17.5311C21.3909 16.3495 21.8967 15.0256 22.1213 13.641ZM16.0042 21.4493C15.852 20.5515 15.2543 17.418 13.8165 13.68L13.7505 13.6987C7.96125 15.7147 5.89125 19.7265 5.71125 20.1015C7.5056 21.5075 9.72044 22.2695 12 22.2653C13.4183 22.2652 14.7698 21.9765 15.9998 21.4523L16.0042 21.4493ZM4.38675 18.8708C4.617 18.4688 7.4295 13.8157 12.7185 12.105C12.8512 12.0592 12.9878 12.0203 13.1205 11.9843C12.8604 11.3969 12.583 10.8174 12.2887 10.2465C7.1715 11.7735 2.2065 11.7113 1.758 11.6993L1.75425 12.012C1.75425 14.6453 2.75025 17.0513 4.3875 18.867L4.38675 18.8708ZM1.965 9.91425C2.42625 9.9225 6.648 9.94125 11.4412 8.6685C10.2812 6.62536 9.01265 4.64578 7.641 2.73825C6.20594 3.41516 4.94688 4.4148 3.96224 5.65901C2.97759 6.90322 2.29403 8.3583 1.965 9.9105V9.91425ZM9.60225 2.05125C9.8835 2.4345 11.7465 4.965 13.422 8.05125C17.0662 6.6885 18.6127 4.61325 18.7972 4.35225C16.9272 2.6827 14.5069 1.76189 12 1.76625C11.1922 1.76483 10.3872 1.86052 9.60225 2.05125ZM19.9342 5.535C19.719 5.82375 18 8.02725 14.211 9.57375C14.4487 10.0658 14.6797 10.5585 14.8912 11.0617C14.973 11.2417 15.039 11.4218 15.1095 11.5898C18.5205 11.16 21.9105 11.8515 22.2502 11.922C22.2356 9.59233 21.4203 7.33856 19.941 5.53875L19.9342 5.535Z" fill="black"/>
</svg>
