<svg width="21" height="29" viewBox="0 0 21 29" fill="none" xmlns="http://www.w3.org/2000/svg">
<g clip-path="url(#clip0_627_740)">
<path d="M0.822083 22.2937L0.981457 22.079L8.50021 8.29127L8.51614 8.14537L5.20208 2.12787C5.14141 2.01783 5.04648 1.92901 4.93073 1.87399C4.81497 1.81897 4.68425 1.80053 4.55705 1.82127C4.42985 1.84202 4.31262 1.9009 4.22195 1.98958C4.13127 2.07827 4.07174 2.19227 4.05177 2.31546L0.822083 22.2937Z" fill="#FFC24A"/>
<path d="M0.915894 22.1305L1.03589 21.904L8.47683 8.25948L5.17121 2.21842C5.11669 2.11336 5.02843 2.02821 4.91965 1.97571C4.81086 1.92321 4.68741 1.9062 4.56779 1.92723C4.44816 1.94825 4.3388 2.00618 4.25609 2.09233C4.17339 2.17849 4.12179 2.28823 4.10902 2.40511L0.915894 22.1305Z" fill="#FFA712"/>
<path d="M10.9324 12.6966L13.3999 10.2497L10.9315 5.69941C10.8772 5.60148 10.7964 5.51963 10.6977 5.46256C10.5991 5.4055 10.4863 5.37537 10.3713 5.37537C10.2564 5.37537 10.1436 5.4055 10.0449 5.46256C9.9463 5.51963 9.86552 5.60148 9.81119 5.69941L8.49213 8.12997V8.33751L10.9324 12.6966Z" fill="#F4BD62"/>
<path d="M10.8879 12.5969L13.287 10.2225L10.8879 5.80005C10.8487 5.70432 10.7816 5.62161 10.6948 5.5619C10.608 5.50219 10.5052 5.46803 10.3988 5.46352C10.2923 5.45902 10.1868 5.48437 10.095 5.53653C10.0031 5.58868 9.92882 5.66541 9.88105 5.75745L8.55543 8.23061L8.51605 8.35658L10.8879 12.5969Z" fill="#FFA50E"/>
<path d="M0.824097 22.2946L0.896284 22.2239L1.15785 22.1215L10.7766 12.8578L10.8985 12.537L8.49941 8.11633L0.824097 22.2946Z" fill="#F6820C"/>
<path d="M11.2396 26.9664L19.9471 22.2729L17.459 7.47298C17.4411 7.36865 17.3939 7.27108 17.3225 7.191C17.251 7.11092 17.1581 7.05141 17.054 7.01901C16.9499 6.98661 16.8385 6.98257 16.7322 7.00734C16.6258 7.03211 16.5286 7.08473 16.4511 7.15942L0.822083 22.2938L9.47802 26.9655C9.74712 27.1107 10.0502 27.1869 10.3583 27.1869C10.6665 27.1869 10.9695 27.1107 11.2386 26.9655" fill="#FDE068"/>
<path d="M19.8675 22.2339L17.4 7.54539C17.3956 7.4456 17.3607 7.3493 17.2997 7.26868C17.2387 7.18806 17.1544 7.12675 17.0573 7.0925C16.9602 7.05825 16.8549 7.0526 16.7545 7.07627C16.6541 7.09994 16.5632 7.15187 16.4934 7.22548L0.915894 22.2656L9.47621 26.8875C9.74317 27.0314 10.0438 27.107 10.3495 27.107C10.6552 27.107 10.9558 27.0314 11.2228 26.8875L19.8675 22.2339Z" fill="#FCCA3F"/>
<path d="M11.2396 26.825C10.9705 26.9701 10.6674 27.0463 10.3593 27.0463C10.0511 27.0463 9.74806 26.9701 9.47896 26.825L0.893332 22.223L0.822083 22.2937L9.47802 26.9654C9.74712 27.1106 10.0502 27.1868 10.3583 27.1868C10.6665 27.1868 10.9695 27.1106 11.2386 26.9654L19.9471 22.2729L19.9255 22.146L11.2396 26.825Z" fill="#EEAB37"/>
</g>
<defs>
<clipPath id="clip0_627_740">
<rect width="20" height="29" fill="white" transform="translate(0.384644)"/>
</clipPath>
</defs>
</svg>
